<svg xmlns="http://www.w3.org/2000/svg" version="1.1" viewBox="-5.0 -10.0 110.0 135.0" fill="#071424">
 <path d="m92.398 68.699c-9.3984-5.3984-21.199-8.6992-34.199-9.6992-2.6016 1.1992-5.3984 1.8984-8.1992 1.8984-2.8984 0-5.6016-0.69922-8.1992-1.8984-13 1-24.801 4.3984-34.199 9.8008-4.3008 2.5-5.3984 6.8008-5 10.102 0.5 4.1016 3.3008 7.3008 7.3008 8.3008 11.102 3 25.398 4.6016 40.102 4.6016 14.699 0 29-1.6016 40.102-4.6016 4-1.1016 6.8008-4.3008 7.3008-8.3008 0.39453-3.4023-0.70703-7.7031-5.0078-10.203z"/>
 <path d="m50 57.5c11.301 0 21.602-13 21.602-27.199 0-13-8.8984-22.102-21.602-22.102-12.699 0-21.602 9.1016-21.602 22.102 0 14.301 10.301 27.199 21.602 27.199z"/>
</svg>