<svg width="48" height="48" viewBox="0 0 48 48" fill="none" xmlns="http://www.w3.org/2000/svg">
<path fill-rule="evenodd" clip-rule="evenodd" d="M38 41H10C7.79 41 6 39.21 6 37V19C6 16.79 7.79 15 10 15H38C40.21 15 42 16.79 42 19V37C42 39.21 40.21 41 38 41Z" stroke="#323232" stroke-width="3" stroke-linecap="round" stroke-linejoin="round"/>
<path d="M32.3483 15V11C32.3483 8.79 30.5583 7 28.3483 7H19.6523C17.4423 7 15.6523 8.79 15.6523 11V15" stroke="#323232" stroke-width="3" stroke-linecap="round" stroke-linejoin="round"/>
<path d="M6 19L18.702 27.382C19.356 27.814 20.122 28.044 20.906 28.044H27.094C27.878 28.044 28.644 27.814 29.298 27.382L42 19" stroke="#323232" stroke-width="3" stroke-linecap="round" stroke-linejoin="round"/>
</svg>
