<svg width="234" height="56" viewBox="0 0 234 56" fill="none" xmlns="http://www.w3.org/2000/svg">
<g clip-path="url(#clip0_95_48642)">
<path d="M10.0404 55.8206L16.3621 33.1203H0L9.48259 0H116.766L110.445 22.3283H159.903L150.606 55.8206H10.0404Z" fill="black"/>
<path d="M46.298 12.0858L44.9965 16.3623H38.4888L39.7904 12.0858H46.298ZM35.6999 26.5886L37.1873 21.1966H44.2528C47.9714 21.1966 50.2026 19.5232 51.3182 15.9904L51.876 13.9452C53.1776 9.48276 51.1323 6.50781 46.298 6.50781H15.805L10.041 26.4027H35.6999V26.5886Z" fill="#F8FF13"/>
<path d="M62.6597 12.0855H65.0768V18.4072H59.1267L62.6597 12.0855ZM54.4784 26.5882L56.3377 23.2415H65.0768V26.5882H70.8403V6.69336H59.6843L47.9707 26.5882H54.4784Z" fill="#F8FF13"/>
<path d="M82.5538 12.0855H88.8761L87.7603 16.3619H81.2525L82.5538 12.0855ZM94.082 15.9901L94.6396 14.1307C95.9415 9.48236 93.8959 6.69336 89.0616 6.69336H78.2777L72.5137 26.5882H78.4638L79.9512 21.1962H83.6697L85.3431 26.5882H91.4787L89.6198 20.8243C91.8509 20.0806 93.3383 18.5931 94.082 15.9901Z" fill="#F8FF13"/>
<path d="M99.6611 26.5882L105.425 6.69336H99.475L93.7109 26.5882H99.6611Z" fill="#F8FF13"/>
<path d="M62.474 29.377L55.5942 37.3721L52.9911 29.377H27.1464L21.5684 49.2719H47.2272L50.388 38.3018L52.4333 44.4376H56.152L61.7303 37.9299L58.5688 49.2719H64.519L70.097 29.377H62.474Z" fill="#F8FF13"/>
<path d="M77.5349 41.0908L81.0679 34.7691H83.485V41.0908H77.5349ZM78.0931 29.377L66.3789 49.2719H73.0727L74.9323 45.925H83.6711V49.2719H89.4346V29.377H78.0931Z" fill="#F8FF13"/>
<path d="M109.514 35.1409L111.002 29.377H92.9664L91.293 35.1409H97.8007L93.8962 49.2719H99.8457L103.75 35.1409H109.514Z" fill="#F8FF13"/>
<path d="M117.324 35.1409H126.435L128.109 29.377H118.44C114.722 29.377 112.49 31.0504 111.375 34.5831L109.329 41.8346C108.028 46.4828 110.073 49.2719 114.907 49.2719H122.345L124.018 43.5079H114.907L117.324 35.1409Z" fill="#F8FF13"/>
<path d="M143.355 29.377L141.309 36.6284H134.616L136.661 29.377H130.711L124.947 49.2719H130.897L132.942 42.2064H139.822L137.777 49.2719H143.726L149.304 29.377H143.355Z" fill="#F8FF13"/>
</g>
<path d="M150.356 56.0004L159.79 22.2754L233.927 22.2754L224.493 56.0004H150.356Z" fill="black"/>
<path d="M210.381 48.3227C210.944 49.2748 211.994 49.7509 213.529 49.7509H216.181C217.522 49.7509 218.6 49.4011 219.416 48.7016C220.232 48.0021 220.874 46.8459 221.34 45.2331L221.544 44.5336C221.991 42.9791 221.651 41.4829 220.524 40.045L217.784 36.6348C217.473 36.2462 217.298 35.9256 217.259 35.673C217.24 35.4204 217.318 35.0415 217.493 34.5362L217.755 33.5744C217.91 33.0498 218.182 32.7874 218.571 32.7874H219.649C220.155 32.7874 220.33 33.0498 220.174 33.5744L219.3 36.664H223.584L224.313 34.0699C224.721 32.632 224.643 31.437 224.08 30.4848C223.516 29.5327 222.467 29.0566 220.932 29.0566H218.571C217.211 29.0566 216.123 29.3967 215.307 30.0768C214.51 30.7569 213.878 31.9227 213.412 33.5744L213.15 34.5362C212.742 35.9353 213.111 37.3538 214.257 38.7917L217.055 42.1727C217.483 42.6779 217.57 43.358 217.318 44.213L217.026 45.204C216.89 45.7286 216.618 45.991 216.21 45.991H214.724C214.218 45.991 214.034 45.7481 214.17 45.2623L215.044 42.1144H210.876L210.148 44.7376C209.913 45.4566 209.632 47.1802 210.381 48.3227Z" fill="white"/>
<path d="M198.151 29.2031H193.925L191.068 49.6059H195.703L199.55 41.1533H199.667L198.792 49.6059H203.427L212.287 29.2031H207.857L204.884 36.315L202.785 41.7363H202.669L203.806 31.5057H200.658L196.198 41.7363H196.082L197.102 36.519L198.151 29.2031Z" fill="white"/>
<path d="M182.073 29.2031H190.846L189.68 33.2837H185.22L184.055 37.3642H188.193L187.027 41.4448H182.889L181.723 45.5254H186.182L185.016 49.6059H176.243L182.073 29.2031Z" fill="white"/>
<path d="M159.498 49.6059L165.327 29.2031H169.408L170.049 39.1131H170.195L171.332 34.4496L172.818 29.2031H176.986L171.157 49.6059H167.076L166.435 39.696H166.289L165.153 44.3595L163.666 49.6059H159.498Z" fill="white"/>
<defs>
<clipPath id="clip0_95_48642">
<rect width="159.903" height="55.8206" fill="white"/>
</clipPath>
</defs>
</svg>
