<svg width="40" height="40" viewBox="0 0 40 40" fill="none" xmlns="http://www.w3.org/2000/svg">
<path d="M27.1687 27.1697L23.834 23.835" stroke="#323232" stroke-width="2" stroke-linecap="round" stroke-linejoin="round"/>
<path fill-rule="evenodd" clip-rule="evenodd" d="M19.9994 4.99365V4.99365C28.3362 4.99365 35.0057 11.6631 35.0057 19.9999V19.9999C35.0057 28.3367 28.3362 35.0062 19.9994 35.0062V35.0062C11.6626 35.0062 4.99316 28.3367 4.99316 19.9999V19.9999C4.99316 11.6631 11.6626 4.99365 19.9994 4.99365Z" stroke="#323232" stroke-width="2" stroke-linecap="round" stroke-linejoin="round"/>
<path d="M8.49414 29.6706L29.6696 8.49512" stroke="#323232" stroke-width="2" stroke-linecap="round" stroke-linejoin="round"/>
<path d="M14.4971 23.668C16.9981 26.3358 21.1665 26.3358 23.6676 23.8348C26.1686 21.3337 26.3353 17.1653 23.8343 14.6643L23.6676 14.4976" stroke="#323232" stroke-width="2" stroke-linecap="round" stroke-linejoin="round"/>
<path d="M12.6631 18.9995C12.6631 17.3322 13.33 15.6648 14.4972 14.4977V14.4977C15.6643 13.3305 17.3317 12.6636 18.9991 12.6636" stroke="#323232" stroke-width="2" stroke-linecap="round" stroke-linejoin="round"/>
</svg>
