<svg width="20" height="20" viewBox="0 0 317 317" fill="none" xmlns="http://www.w3.org/2000/svg">
<path fill-rule="evenodd" clip-rule="evenodd" d="M159 0C246 0 317 71 317 159C317 246 246 317 159 317C71 317 0 246 0 159C0 71 71 0 159 0ZM198 292C201 295 205 298 209 298C239 287 264 267 282 241C282 237 280 235 278 232C264 241 250 249 235 256C224 269 212 282 198 292ZM194 303C192 301 190 299 188 297C170 295 152 292 135 284L109 292C110 295 111 297 113 300C139 308 168 309 194 303ZM12 140C7 174 15 208 33 237L37 238C35 226 34 213 32 200C26 182 22 163 20 144C17 143 14 142 12 140ZM23 134C32 121 44 109 57 98C62 80 69 63 76 46C75 44 72 41 70 40C41 62 21 93 13 129C16 131 20 133 23 134ZM145 26C159 36 172 47 183 60C200 61 217 64 233 69L248 49C244 41 238 34 231 29C208 17 183 10 158 10C153 15 148 20 145 26ZM256 56L241 76C247 93 251 110 255 127C270 135 284 146 293 162C298 156 304 150 306 143C304 119 295 96 281 76C274 68 265 62 256 56ZM86 49C79 65 73 82 67 100L98 129C117 121 136 115 156 111C162 96 168 81 174 66C164 53 151 43 137 33C120 35 102 41 86 49ZM275 222C282 207 285 187 287 171C279 155 265 144 250 136C236 142 222 149 210 158L199 216C210 226 221 236 232 246C247 239 261 231 275 222ZM93 195C104 207 123 221 136 232C154 228 172 221 189 215L199 157C188 143 174 130 159 121C139 125 120 131 101 138C97 157 94 176 93 195ZM131 275C133 264 132 251 130 240C115 228 98 215 84 202C71 203 57 204 43 204C44 217 46 231 48 244C59 254 90 281 103 283L131 275Z" fill="#A7AAAD"/>
</svg>
