<svg width="18" height="19" viewBox="0 0 18 19" fill="none" xmlns="http://www.w3.org/2000/svg">
<g id="Group">
<g id="Group_2">
<path id="Path" d="M14.7892 5.36297L14.7967 5.34797" stroke="#7F8AA8" stroke-linecap="round" stroke-linejoin="round"/>
<path id="Path_2" d="M11.1522 2.69938L11.1447 2.70687" stroke="#7F8AA8" stroke-linecap="round" stroke-linejoin="round"/>
<path id="Path_3" d="M16.125 9.44125V9.43375" stroke="#7F8AA8" stroke-linecap="round" stroke-linejoin="round"/>
<path id="Path_4" d="M1.875 9.43375V9.44125" stroke="#7F8AA8" stroke-linecap="round" stroke-linejoin="round"/>
<path id="Path_5" d="M3.20328 5.34797L3.21078 5.36297" stroke="#7F8AA8" stroke-linecap="round" stroke-linejoin="round"/>
<path id="Path_6" d="M6.85531 2.70687L6.84781 2.69938" stroke="#7F8AA8" stroke-linecap="round" stroke-linejoin="round"/>
<path id="Path_7" d="M14.0381 4.46186C16.8206 7.24435 16.8206 11.7557 14.0381 14.5381C11.2556 17.3206 6.74433 17.3206 3.96186 14.5381C1.17938 11.7556 1.17938 7.24433 3.96186 4.46186C6.74435 1.67938 11.2557 1.67938 14.0381 4.46186" stroke="#7F8AA8" stroke-linecap="round" stroke-linejoin="round"/>
<path id="Path_8" d="M11.918 8.56406L13.418 8.07656" stroke="#7F8AA8" stroke-linecap="round" stroke-linejoin="round"/>
<path id="Path_9" d="M16.0812 10.1373L13.418 8.07625L14.3615 4.84375" stroke="#7F8AA8" stroke-linecap="round" stroke-linejoin="round"/>
<path id="Path_10" d="M9 6.44969V4.86719" stroke="#7F8AA8" stroke-linecap="round" stroke-linejoin="round"/>
<path id="Path_11" d="M11.7852 2.96875L9.002 4.864L6.21875 2.96875" stroke="#7F8AA8" stroke-linecap="round" stroke-linejoin="round"/>
<path id="Path_12" d="M10.8008 11.9844L11.7308 13.2669" stroke="#7F8AA8" stroke-linecap="round" stroke-linejoin="round"/>
<path id="Path_13" d="M10.5938 16.4395L11.7315 13.27L15.0968 13.168" stroke="#7F8AA8" stroke-linecap="round" stroke-linejoin="round"/>
<path id="Path_14" d="M6.08203 8.56406L4.58203 8.07656" stroke="#7F8AA8" stroke-linecap="round" stroke-linejoin="round"/>
<path id="Path_15" d="M1.91797 10.1373L4.58122 8.07625L3.63772 4.84375" stroke="#7F8AA8" stroke-linecap="round" stroke-linejoin="round"/>
<path id="Path_16" d="M7.19953 11.9844L6.26953 13.2669" stroke="#7F8AA8" stroke-linecap="round" stroke-linejoin="round"/>
<path id="Path_17" d="M7.40534 16.4395L6.26759 13.27L2.90234 13.168" stroke="#7F8AA8" stroke-linecap="round" stroke-linejoin="round"/>
<path id="Path_18" fill-rule="evenodd" clip-rule="evenodd" d="M8.99969 6.44531L11.9134 8.56256L10.8004 11.9871H7.19894L6.08594 8.56256L8.99969 6.44531Z" stroke="#7F8AA8" stroke-linecap="round" stroke-linejoin="round"/>
</g>
</g>
</svg>
