<svg width="20" height="20" viewBox="0 0 20 20" fill="none" xmlns="http://www.w3.org/2000/svg">
<g id="Group">
<g id="Group_2">
<path id="Path" fill-rule="evenodd" clip-rule="evenodd" d="M9.82037 2.78025C9.89355 2.63089 10.1064 2.6309 10.1796 2.78027L12.3995 7.31318C12.4285 7.37237 12.4848 7.41348 12.55 7.42308L17.5185 8.15492C17.682 8.179 17.7474 8.37975 17.6294 8.49552L14.033 12.0253C13.9862 12.0712 13.9649 12.1371 13.9759 12.2016L14.8243 17.1864C14.8522 17.35 14.6802 17.4744 14.5335 17.3967L10.0937 15.044C10.0351 15.013 9.96494 15.013 9.90637 15.044L5.46649 17.3967C5.31985 17.4744 5.14783 17.35 5.17568 17.1864L6.02413 12.2016C6.03512 12.1371 6.0138 12.0712 5.96706 12.0253L2.3706 8.49551C2.25265 8.37975 2.31804 8.179 2.48155 8.15491L7.4492 7.42308C7.51439 7.41348 7.57067 7.37238 7.59966 7.31321L9.82037 2.78025Z" fill="#636F92"/>
</g>
</g>
</svg>
