<svg width="20" height="20" viewBox="0 0 20 20" fill="none" xmlns="http://www.w3.org/2000/svg">
<g id="Group">
<path id="Path" d="M9.83189 17.3367V12.8761" stroke="#636F92" stroke-width="1.31231" stroke-linecap="round" stroke-linejoin="round"/>
<path id="Path_2" fill-rule="evenodd" clip-rule="evenodd" d="M7.68452 8.66005L7.68452 6.20949C7.68696 5.94813 7.57008 5.69992 7.36705 5.53532L6.49671 4.84328C6.3539 4.72959 6.29873 4.53796 6.35922 4.36574C6.41971 4.19351 6.5826 4.07847 6.76513 4.07904L12.8987 4.07904C13.0812 4.07847 13.2441 4.19351 13.3046 4.36574C13.3651 4.53796 13.3099 4.7296 13.1671 4.84329L12.2967 5.53529C12.0937 5.69989 11.9768 5.9481 11.9793 6.20947L11.9793 8.66004C11.9783 8.88782 12.0686 9.1065 12.2299 9.26733L14.3754 11.4129C14.6204 11.6586 14.6934 12.0276 14.5606 12.3481C14.4277 12.6686 14.1151 12.8777 13.7682 12.8781L5.89744 12.8745C5.5505 12.8741 5.23787 12.665 5.10503 12.3445C4.97218 12.024 5.04522 11.6551 5.29015 11.4093L7.43574 9.26376C7.5955 9.10352 7.685 8.88633 7.68452 8.66005Z" fill="#636F92" stroke="#636F92" stroke-width="1.31231" stroke-linecap="round" stroke-linejoin="round"/>
</g>
</svg>
