<svg width="32" height="33" viewBox="0 0 32 33" fill="none" xmlns="http://www.w3.org/2000/svg">
<g clip-path="url(#clip0_4701_528926)">
<rect y="0.5" width="32" height="32" rx="16" fill="#DBDFE2"/>
<g clip-path="url(#clip1_4701_528926)">
<path d="M32 0.5H0V32.5H32V0.5Z" fill="#F0F1F5"/>
<path d="M21.8855 24.987C20.7121 24.4421 20.099 24.0174 20.0747 22.834C20.0747 22.8251 20.0766 21.2027 20.0775 20.1006C20.4116 19.5076 20.7716 18.8084 20.9217 18.34C21.0222 18.026 21.2417 16.868 21.2097 16.324C21.3118 16.34 21.4977 16.1 21.4977 15.812C21.4977 15.524 21.8497 13.668 22.1057 13.124C22.3617 12.58 21.9457 12.196 21.7217 12.356C21.9777 11.428 22.331 9.81325 22.0737 7.55597C21.8238 5.36397 18.3678 3.75053 16.4945 3.75053C16.0878 3.71949 15.7355 3.72845 15.4571 3.75053C14.9854 3.76493 14.1972 3.86637 13.4561 4.57997C12.4321 4.61197 9.77609 5.28397 9.77609 7.55597C9.77609 9.82797 9.96809 11.172 10.2241 12.1C10.0001 11.94 9.71209 12.804 9.96809 13.348C10.2241 13.892 10.4481 15.396 10.4481 15.684C10.4481 15.972 10.5761 16.196 10.7361 16.036C10.7041 16.58 10.8001 17.668 10.9601 17.956C11.051 18.1198 11.5041 19.0491 11.9019 19.8734C11.9095 20.9588 11.9259 22.8101 11.9259 22.8184C11.9038 24.0136 11.2932 24.4395 10.1147 24.9867C0.502172 29.0181 0.0183324 30.2325 0.000732422 32.5003H31.9994C31.9818 30.2325 31.498 29.0181 21.8855 24.987Z" fill="#9EA6BD"/>
</g>
</g>
<defs>
<clipPath id="clip0_4701_528926">
<rect y="0.5" width="32" height="32" rx="16" fill="white"/>
</clipPath>
<clipPath id="clip1_4701_528926">
<rect width="32" height="32" fill="white" transform="translate(0 0.5)"/>
</clipPath>
</defs>
</svg>
