<svg width="20" height="20" viewBox="0 0 20 20" fill="none" xmlns="http://www.w3.org/2000/svg">
<g id="Component 13" clip-path="url(#clip0_6470_38830)">
<path id="Vector" d="M22.8119 19.4254C22.544 17.6552 21.2992 17.289 19.5503 16.9155C18.6555 16.7243 17.5369 16.5331 16.7949 16.0785C17.8662 15.531 19.2545 14.5882 19.5648 13.2753C20.0856 11.0727 19.2202 9.77047 18.5485 8.57671C17.8769 7.38296 18.0267 2.8705 16.5186 2.8705C15.7265 2.8705 15.0973 2.7349 15.0973 2.7349C15.0973 2.7349 14.158 2.15287 13.3357 2.0226C12.5135 1.89233 11.9528 2.32326 10.7486 3.36491C9.60388 4.35527 9.74329 4.94389 9.68844 6.23034C9.57543 6.64375 9.48554 7.05335 9.42002 7.43298C8.99062 8.40073 8.17446 9.18642 8.07619 9.74635C7.94592 10.4876 8.52261 10.9838 8.65288 11.2712C8.78315 11.5589 8.00204 12.4807 8.14094 13.8396C8.2349 14.7588 9.76436 15.7151 10.7443 16.2382C10.0973 16.5498 9.24125 16.7192 8.49189 16.8764C6.53327 17.2875 6.22271 17.5859 5.72169 18.3335C5.42077 18.7824 5.13611 19.5074 5 19.98H22.8584C22.8617 19.98 22.8551 19.7088 22.8121 19.4251L22.8119 19.4254Z" fill="#FF9999"/>
<path id="Vector_2" d="M14.8119 19.4254C14.544 17.6552 13.2992 17.289 11.5503 16.9155C10.6555 16.7243 9.53686 16.5331 8.79486 16.0785C9.86622 15.531 11.2545 14.5882 11.5648 13.2753C12.0856 11.0727 11.2202 9.77047 10.5485 8.57671C9.87688 7.38296 10.0267 2.8705 8.51858 2.8705C7.72655 2.8705 7.09729 2.7349 7.09729 2.7349C7.09729 2.7349 6.15798 2.15287 5.33573 2.0226C4.51348 1.89233 3.95279 2.32326 2.74862 3.36491C1.60388 4.35527 1.74329 4.94389 1.68844 6.23034C1.57543 6.64375 1.48554 7.05335 1.42002 7.43298C0.990618 8.40073 0.174465 9.18642 0.0761909 9.74635C-0.0540786 10.4876 0.522612 10.9838 0.652882 11.2712C0.783151 11.5589 0.00204158 12.4807 0.140945 13.8396C0.234902 14.7588 1.76436 15.7151 2.74431 16.2382C2.09727 16.5498 1.24125 16.7192 0.491885 16.8764C-1.46673 17.2875 -1.77729 17.5859 -2.27831 18.3335C-2.57923 18.7824 -2.86389 19.5074 -3 19.98H14.8584C14.8617 19.98 14.8551 19.7088 14.8121 19.4251L14.8119 19.4254Z" fill="#FF3333"/>
</g>
<defs>
<clipPath id="clip0_6470_38830">
<rect width="20" height="20" fill="white"/>
</clipPath>
</defs>
</svg>
