<svg width="20" height="20" viewBox="0 0 20 20" fill="none" xmlns="http://www.w3.org/2000/svg">
<g clip-path="url(#clip0_6470_38821)">
<path d="M18.6785 15.2859C17.9451 14.9453 17.5619 14.6798 17.5467 13.9402C17.5467 13.9346 17.5479 12.9206 17.5485 12.2317C17.7573 11.8611 17.9823 11.4241 18.0761 11.1313C18.1389 10.9351 18.2761 10.2113 18.2561 9.87125C18.3199 9.88125 18.4361 9.73125 18.4361 9.55124C18.4361 9.37123 18.6561 8.21119 18.8162 7.87117C18.9762 7.53116 18.7161 7.29115 18.5761 7.39115C18.7361 6.81113 18.957 5.80189 18.7962 4.39103C18.6399 3.02098 16.4799 2.01254 15.309 2.01254C15.0548 1.99314 14.8346 1.99874 14.6606 2.01254C14.3658 2.02154 13.8732 2.08494 13.4099 2.53096C12.7699 2.55096 11.1098 2.97098 11.1098 4.39103C11.1098 5.81109 11.2298 6.65112 11.3899 7.23115C11.2499 7.13114 11.0698 7.67116 11.2298 8.01118C11.3899 8.35119 11.5299 9.29123 11.5299 9.47124C11.5299 9.65124 11.6099 9.79125 11.7099 9.69125C11.6899 10.0313 11.7499 10.7113 11.8499 10.8913C11.9067 10.9937 12.1899 11.5745 12.4385 12.0897C12.4433 12.7682 12.4535 13.9252 12.4535 13.9304C12.4397 14.6774 12.0581 14.9437 11.3215 15.2857C5.31341 17.8054 5.011 18.5644 5 19.9819H25C24.989 18.5644 24.6866 17.8054 18.6785 15.2859Z" fill="#7AB2FF"/>
<path d="M8.67855 15.2859C7.94512 14.9453 7.5619 14.6798 7.5467 13.9402C7.5467 13.9346 7.5479 12.9206 7.5485 12.2317C7.75731 11.8611 7.98232 11.4241 8.07612 11.1313C8.13893 10.9351 8.27613 10.2113 8.25613 9.87125C8.31993 9.88125 8.43614 9.73125 8.43614 9.55124C8.43614 9.37123 8.65615 8.21119 8.81615 7.87117C8.97616 7.53116 8.71615 7.29115 8.57614 7.39115C8.73615 6.81113 8.95696 5.80189 8.79615 4.39103C8.63995 3.02098 6.47986 2.01254 5.30901 2.01254C5.0548 1.99314 4.83459 1.99874 4.66059 2.01254C4.36578 2.02154 3.87316 2.08494 3.40994 2.53096C2.76991 2.55096 1.10984 2.97098 1.10984 4.39103C1.10984 5.81109 1.22985 6.65112 1.38986 7.23115C1.24985 7.13114 1.06984 7.67116 1.22985 8.01118C1.38986 8.35119 1.52986 9.29123 1.52986 9.47124C1.52986 9.65124 1.60986 9.79125 1.70987 9.69125C1.68987 10.0313 1.74987 10.7113 1.84987 10.8913C1.90668 10.9937 2.18989 11.5745 2.4385 12.0897C2.4433 12.7682 2.4535 13.9252 2.4535 13.9304C2.4397 14.6774 2.05808 14.9437 1.32145 15.2857C-4.68659 17.8054 -4.989 18.5644 -5 19.9819H15C14.989 18.5644 14.6866 17.8054 8.67855 15.2859Z" fill="#005DE0"/>
</g>
<defs>
<clipPath id="clip0_6470_38821">
<rect width="20" height="20" fill="white"/>
</clipPath>
</defs>
</svg>
