<svg width="18" height="18" viewBox="0 0 18 18" fill="none" xmlns="http://www.w3.org/2000/svg">
<g id="Group">
<g id="Group_2">
<path id="a" d="M13.773 4.22703C16.409 6.86307 16.409 11.1369 13.773 13.773C11.1369 16.409 6.86305 16.409 4.22703 13.773C1.59099 11.1369 1.59099 6.86305 4.22703 4.22703C6.86307 1.59099 11.1369 1.59099 13.773 4.22703" stroke="white" stroke-width="1.2" stroke-linecap="round" stroke-linejoin="round"/>
<path id="a_2" d="M13.773 4.22703C16.409 6.86307 16.409 11.1369 13.773 13.773C11.1369 16.409 6.86305 16.409 4.22703 13.773C1.59099 11.1369 1.59099 6.86305 4.22703 4.22703C6.86307 1.59099 11.1369 1.59099 13.773 4.22703" stroke="white" stroke-width="1.2" stroke-linecap="round" stroke-linejoin="round"/>
</g>
<path id="Path" d="M13.5 3.97852C12.1222 5.21452 11.25 7.00327 11.25 8.99977C11.25 10.9963 12.1222 12.785 13.5 14.021" stroke="white" stroke-width="1.2" stroke-linecap="round" stroke-linejoin="round"/>
<path id="Path_2" d="M4.5 14.021C5.87775 12.785 6.75 10.9963 6.75 8.99977C6.75 7.00327 5.87775 5.21452 4.5 3.97852" stroke="white" stroke-width="1.2" stroke-linecap="round" stroke-linejoin="round"/>
</g>
</svg>
