<svg width="20" height="20" viewBox="0 0 20 20" fill="none" xmlns="http://www.w3.org/2000/svg">
<g clip-path="url(#clip0_6995_365)">
<path d="M23.8119 19.4254C23.544 17.6552 22.2992 17.289 20.5503 16.9155C19.6555 16.7243 18.5369 16.5331 17.7949 16.0785C18.8662 15.531 20.2545 14.5882 20.5648 13.2753C21.0856 11.0727 20.2202 9.77047 19.5485 8.57671C18.8769 7.38296 19.0267 2.8705 17.5186 2.8705C16.7265 2.8705 16.0973 2.7349 16.0973 2.7349C16.0973 2.7349 15.158 2.15287 14.3357 2.0226C13.5135 1.89233 12.9528 2.32326 11.7486 3.36491C10.6039 4.35527 10.7433 4.94389 10.6884 6.23034C10.5754 6.64375 10.4855 7.05335 10.42 7.43298C9.99062 8.40073 9.17446 9.18641 9.07619 9.74635C8.94592 10.4876 9.52261 10.9838 9.65288 11.2712C9.78315 11.5589 9.00204 12.4807 9.14094 13.8396C9.2349 14.7588 10.7644 15.7151 11.7443 16.2382C11.0973 16.5498 10.2413 16.7192 9.49189 16.8764C7.53327 17.2875 7.22271 17.5859 6.72169 18.3335C6.42077 18.7824 6.13611 19.5074 6 19.98H23.8584C23.8617 19.98 23.8551 19.7088 23.8121 19.4251L23.8119 19.4254Z" fill="#FF3333"/>
<path d="M8.67855 15.2859C7.94512 14.9453 7.5619 14.6798 7.5467 13.9402C7.5467 13.9346 7.5479 12.9206 7.5485 12.2317C7.75731 11.8611 7.98232 11.4241 8.07612 11.1313C8.13893 10.9351 8.27613 10.2113 8.25613 9.87125C8.31993 9.88125 8.43614 9.73125 8.43614 9.55124C8.43614 9.37123 8.65615 8.21119 8.81615 7.87117C8.97616 7.53116 8.71615 7.29115 8.57614 7.39115C8.73615 6.81113 8.95696 5.80189 8.79615 4.39103C8.63995 3.02098 6.47986 2.01254 5.30901 2.01254C5.0548 1.99314 4.83459 1.99874 4.66059 2.01254C4.36578 2.02154 3.87316 2.08494 3.40994 2.53096C2.76991 2.55096 1.10984 2.97098 1.10984 4.39103C1.10984 5.81109 1.22985 6.65112 1.38986 7.23115C1.24985 7.13114 1.06984 7.67116 1.22985 8.01118C1.38986 8.35119 1.52986 9.29123 1.52986 9.47124C1.52986 9.65124 1.60986 9.79125 1.70987 9.69125C1.68987 10.0313 1.74987 10.7113 1.84987 10.8913C1.90668 10.9937 2.18989 11.5745 2.4385 12.0897C2.4433 12.7682 2.4535 13.9252 2.4535 13.9304C2.4397 14.6774 2.05808 14.9437 1.32145 15.2857C-4.68659 17.8054 -4.989 18.5644 -5 19.9819H15C14.989 18.5644 14.6866 17.8054 8.67855 15.2859Z" fill="#005DE0"/>
</g>
<defs>
<clipPath id="clip0_6995_365">
<rect width="20" height="20" fill="white"/>
</clipPath>
</defs>
</svg>
