<svg width="100" height="100" viewBox="0 0 100 100" fill="none" xmlns="http://www.w3.org/2000/svg">
<g clip-path="url(#clip0_6709_151766)">
<rect width="100" height="100" rx="12" fill="white"/>
<g clip-path="url(#clip1_6709_151766)">
<path d="M68.3927 76.4294C64.7256 74.7263 62.8095 73.3992 62.7335 69.7011C62.7335 69.6731 62.7395 64.6029 62.7425 61.1587C63.7865 59.3057 64.9116 57.1206 65.3806 55.6565C65.6946 54.6755 66.3807 51.0563 66.2806 49.3563C66.5997 49.4063 67.1807 48.6562 67.1807 47.7562C67.1807 46.8562 68.2807 41.0559 69.0808 39.3559C69.8808 37.6558 68.5807 36.4557 67.8807 36.9558C68.6807 34.0556 69.7848 29.0094 68.9808 21.9552C68.1997 15.1049 57.3993 10.0627 51.5451 10.0627C50.274 9.96569 49.173 9.99369 48.3029 10.0627C46.8289 10.1077 44.3658 10.4247 42.0497 12.6548C38.8496 12.7548 30.5492 14.8549 30.5492 21.9552C30.5492 29.0555 31.1492 33.2556 31.9493 36.1557C31.2493 35.6557 30.3492 38.3558 31.1492 40.0559C31.9493 41.756 32.6493 46.4561 32.6493 47.3562C32.6493 48.2562 33.0493 48.9562 33.5493 48.4562C33.4493 50.1563 33.7494 53.5564 34.2494 54.4565C34.5334 54.9685 35.9494 57.8726 37.1925 60.4487C37.2165 63.8408 37.2675 69.6261 37.2675 69.6521C37.1985 73.3872 35.2904 74.7183 31.6073 76.4284C1.56706 89.0269 0.0550022 92.822 0 99.9093H100C99.945 92.822 98.4329 89.0269 68.3927 76.4294Z" fill="#BCC2D2"/>
</g>
</g>
<rect x="0.5" y="0.5" width="99" height="99" rx="11.5" stroke="#DBDDE6"/>
<defs>
<clipPath id="clip0_6709_151766">
<rect width="100" height="100" rx="12" fill="white"/>
</clipPath>
<clipPath id="clip1_6709_151766">
<rect width="100" height="100" fill="white"/>
</clipPath>
</defs>
</svg>
