<svg width="20" height="20" viewBox="0 0 20 20" fill="none" xmlns="http://www.w3.org/2000/svg">
<g id="Component 13">
<path id="Vector" d="M18.8119 19.4254C18.544 17.6552 17.2992 17.289 15.5503 16.9155C14.6555 16.7243 13.5369 16.5331 12.7949 16.0785C13.8662 15.531 15.2545 14.5882 15.5648 13.2753C16.0856 11.0727 15.2202 9.77047 14.5485 8.57671C13.8769 7.38296 14.0267 2.8705 12.5186 2.8705C11.7265 2.8705 11.0973 2.7349 11.0973 2.7349C11.0973 2.7349 10.158 2.15287 9.33573 2.0226C8.51348 1.89233 7.95279 2.32326 6.74862 3.36491C5.60388 4.35527 5.74329 4.94389 5.68844 6.23034C5.57543 6.64375 5.48554 7.05335 5.42002 7.43298C4.99062 8.40073 4.17446 9.18642 4.07619 9.74635C3.94592 10.4876 4.52261 10.9838 4.65288 11.2712C4.78315 11.5589 4.00204 12.4807 4.14094 13.8396C4.2349 14.7588 5.76436 15.7151 6.74431 16.2382C6.09727 16.5498 5.24125 16.7192 4.49189 16.8764C2.53327 17.2875 2.22271 17.5859 1.72169 18.3335C1.42077 18.7824 1.13611 19.5074 1 19.98H18.8584C18.8617 19.98 18.8551 19.7088 18.8121 19.4251L18.8119 19.4254Z" fill="#FF3333"/>
</g>
</svg>
