<svg width="20" height="18" viewBox="0 0 20 18" fill="none" xmlns="http://www.w3.org/2000/svg">
<g id="Layer_1">
<path id="Vector" d="M13.6785 13.2859C12.9451 12.9453 12.5619 12.6798 12.5467 11.9402C12.5467 11.9346 12.5479 10.9206 12.5485 10.2317C12.7573 9.86113 12.9823 9.42412 13.0761 9.1313C13.1389 8.9351 13.2761 8.21127 13.2561 7.87125C13.3199 7.88125 13.4361 7.73125 13.4361 7.55124C13.4361 7.37123 13.6561 6.21119 13.8162 5.87117C13.9762 5.53116 13.7161 5.29115 13.5761 5.39115C13.7361 4.81113 13.957 3.80189 13.7962 2.39103C13.6399 1.02098 11.4799 0.0125378 10.309 0.0125378C10.0548 -0.00686294 9.83459 -0.00126272 9.66059 0.0125378C9.36578 0.0215382 8.87316 0.0849407 8.40994 0.530959C7.76991 0.550959 6.10984 0.970976 6.10984 2.39103C6.10984 3.81109 6.22985 4.65112 6.38986 5.23115C6.24985 5.13114 6.06984 5.67116 6.22985 6.01118C6.38986 6.35119 6.52986 7.29123 6.52986 7.47124C6.52986 7.65124 6.60986 7.79125 6.70987 7.69125C6.68987 8.03126 6.74987 8.71129 6.84987 8.89129C6.90668 8.9937 7.18989 9.57452 7.4385 10.0897C7.4433 10.7682 7.4535 11.9252 7.4535 11.9304C7.4397 12.6774 7.05808 12.9437 6.32145 13.2857C0.313412 15.8054 0.0110004 16.5644 0 17.9819H20C19.989 16.5644 19.6866 15.8054 13.6785 13.2859Z" fill="#005DE0"/>
</g>
</svg>
