<svg width="100" height="90" viewBox="0 0 100 90" fill="none" xmlns="http://www.w3.org/2000/svg">
<path d="M68.3927 66.4294C64.7256 64.7263 62.8095 63.3992 62.7335 59.7011C62.7335 59.6731 62.7395 54.6029 62.7425 51.1587C63.7865 49.3057 64.9116 47.1206 65.3806 45.6565C65.6946 44.6755 66.3807 41.0563 66.2806 39.3563C66.5997 39.4063 67.1807 38.6562 67.1807 37.7562C67.1807 36.8562 68.2807 31.0559 69.0808 29.3559C69.8808 27.6558 68.5807 26.4557 67.8807 26.9558C68.6807 24.0556 69.7848 19.0094 68.9808 11.9552C68.1997 5.10489 57.3993 0.0626892 51.5451 0.0626892C50.274 -0.0343147 49.173 -0.00631358 48.3029 0.0626892C46.8289 0.107691 44.3658 0.424704 42.0497 2.65479C38.8496 2.7548 30.5492 4.85488 30.5492 11.9552C30.5492 19.0555 31.1492 23.2556 31.9493 26.1557C31.2493 25.6557 30.3492 28.3558 31.1492 30.0559C31.9493 31.756 32.6493 36.4561 32.6493 37.3562C32.6493 38.2562 33.0493 38.9562 33.5493 38.4562C33.4493 40.1563 33.7494 43.5564 34.2494 44.4565C34.5334 44.9685 35.9494 47.8726 37.1925 50.4487C37.2165 53.8408 37.2675 59.6261 37.2675 59.6521C37.1985 63.3872 35.2904 64.7183 31.6073 66.4284C1.56706 79.0269 0.0550022 82.822 0 89.9093H100C99.945 82.822 98.4329 79.0269 68.3927 66.4294Z" fill="#BCC2D2"/>
</svg>
