<svg width="20" height="20" viewBox="0 0 20 20" fill="none" xmlns="http://www.w3.org/2000/svg">
<rect width="20" height="20" rx="10" fill="#1030AD"/>
<path fill-rule="evenodd" clip-rule="evenodd" d="M6.61701 3.97314C6.66407 3.72539 6.46673 3.75324 6.02501 4.0562C5.6337 4.17864 5.54391 4.29867 5.75661 4.41678C6.12104 4.51953 6.29676 4.68326 6.2838 4.907C6.2982 5.22485 6.38175 5.21573 6.53347 4.87915C6.53347 4.80521 6.6415 4.73415 6.85708 4.66645C6.99776 4.62756 7.03185 4.53826 6.95887 4.39806C6.91133 4.32748 6.98528 4.16375 7.18069 3.90784C7.54655 3.60968 7.64834 3.46516 7.48605 3.47332C7.33577 3.42819 7.19413 3.48052 7.06066 3.6308C7.02801 3.82334 6.92622 3.9621 6.75529 4.04708C6.68423 4.05044 6.63814 4.02595 6.61653 3.97314M14.3592 6.02716H14.3601C14.6833 6.58651 14.9425 6.83906 15.137 6.78529C15.2244 6.69118 15.3387 6.68542 15.4793 6.76704C15.6075 6.83234 15.7895 6.82898 16.0252 6.75792C16.2927 6.72095 16.3479 6.85971 16.1919 7.17419C15.97 7.38497 15.5845 7.42819 15.0357 7.30383C14.8148 7.20588 14.6607 7.203 14.5733 7.29471C14.4235 7.37729 14.2353 7.33408 14.0092 7.16507C13.8426 7.13818 13.7657 7.04552 13.7777 6.88756C13.9223 6.66381 13.7374 6.58699 13.2227 6.65613C12.9178 6.78481 12.6984 6.85587 12.5644 6.86835C12.5515 6.87363 12.5385 6.87843 12.5251 6.88371C12.3637 6.85202 12.3373 6.80689 12.4454 6.7488C12.7435 6.73295 12.9193 6.60332 12.9726 6.36037C12.9903 6.21441 13.1262 6.11598 13.3797 6.06412C13.6001 6.04876 13.7633 5.95946 13.8699 5.79573C13.9645 5.68626 14.2041 5.75396 14.3592 6.02716ZM2.67223 7.85647C3.4755 5.04144 5.86608 2.89572 8.81411 2.44823C8.55772 2.48712 8.56108 2.62204 8.45305 2.63597C8.18513 2.67534 8.06846 2.73439 8.02813 2.81217C7.72036 3.3432 9.07002 3.24718 8.62926 3.57991C8.47417 3.64665 8.37863 3.73307 8.34262 3.8387C8.32533 3.95345 8.28212 4.01827 8.2125 4.03268C8.00412 4.06388 7.86248 4.03316 7.67667 3.94049C7.47597 3.9016 7.4486 3.91984 7.39915 3.99618C7.34057 4.17095 7.45101 4.23817 7.75013 4.2545C7.92394 4.13879 7.983 4.14503 8.01901 4.27322C8.03149 4.48112 8.11455 4.59827 8.26868 4.62468C8.44537 4.73655 8.49482 4.85995 8.41656 4.99487C8.33397 5.10674 8.34358 5.23637 8.4444 5.38329C8.49722 5.5619 8.40503 5.60512 8.16737 5.62432C7.97003 5.61472 7.89849 5.59887 7.95419 5.46636C8.18849 5.28727 8.23747 5.18884 8.10207 5.17011C7.8548 5.29831 7.67907 5.34776 7.57488 5.318C7.41212 5.30311 7.37178 5.34584 7.45485 5.44763C7.39291 5.59599 7.48221 5.63921 7.72324 5.57727C7.84904 5.59552 7.86104 5.65985 7.76021 5.77172C7.66035 5.81926 7.58977 5.85623 7.54751 5.88263C7.3521 6.02571 7.20374 6.07517 7.10339 6.03051C6.97231 5.86439 6.51283 6.19232 6.35438 6.41942C6.16329 6.66717 6.13688 6.80017 6.05382 6.83954C5.52135 7.11034 5.42484 7.18764 5.41524 7.91312C5.39171 8.05812 5.18813 8.06725 5.15596 7.94145C5.0537 7.67258 5.04793 7.51125 4.7032 7.51557C4.16161 7.55542 3.85336 7.70955 3.77798 7.97794C3.69924 8.24922 3.71172 8.45567 3.81495 8.59779C3.95179 8.79033 4.10927 8.73463 4.28644 8.43071C4.38919 8.30107 4.50922 8.30299 4.54187 8.43167C4.563 8.51617 4.19954 9.26134 4.61053 9.05056C4.72961 9.01455 4.83475 8.89788 4.85156 8.99534C4.79298 9.25462 4.7709 9.52061 4.82323 9.6805C5.02825 9.88695 5.23855 9.83414 5.41572 9.63392C5.65002 9.13266 6.11815 9.35977 6.46721 9.45867C6.89501 9.57967 8.03629 10.3292 8.04253 10.6508C8.23603 11.0518 9.81039 10.8693 9.35618 11.7796C8.92742 12.4509 9.41524 13.0722 8.94903 13.186C8.61965 13.27 8.53371 13.4063 8.54235 13.5936C8.58892 13.7367 8.4228 13.9038 8.33925 13.9825C8.1568 14.3604 7.9465 14.6432 7.56144 14.9437C7.32041 15.1535 7.25895 15.3821 7.2287 15.6289C7.1346 15.9784 7.27048 16.2867 7.63586 16.5541C7.82983 16.7298 7.81111 16.8163 7.58016 16.8129C6.86524 16.6905 6.43936 16.3328 6.30349 15.7398C6.28956 15.4181 6.25259 15.0849 6.19258 14.7406C6.09463 14.4482 6.0639 14.0905 6.09991 13.6675C6.10663 13.0991 5.98948 12.7721 5.74845 12.6871C5.59433 12.6501 5.47718 12.5637 5.39699 12.4283C5.30481 12.2031 5.11371 11.8022 4.82323 11.2256C4.75169 11.0839 4.77666 10.936 4.89717 10.7814C5.0729 10.6206 5.20878 10.4482 5.30433 10.2634C5.3629 10.1145 5.2952 10.0281 5.10075 10.0046C4.9279 9.93737 4.71808 9.78949 4.47177 9.56046C4.24803 9.26998 3.94603 9.02895 3.60273 9.02367C3.30505 8.87003 3.08851 8.79657 2.91758 8.617C2.88925 8.32124 2.82827 8.03748 2.67271 7.85647H2.67223ZM2.54932 8.35148C2.55988 8.30203 2.57092 8.25258 2.58245 8.2036C2.62566 8.339 2.60309 8.37357 2.54932 8.35148ZM13.9328 3.48532C15.861 4.67462 17.1502 6.38245 17.4224 8.74135C17.216 8.87291 17.0844 9.22821 16.7752 8.80425C16.6355 8.33132 16.3128 7.98802 16.1318 7.77004C15.8702 7.58135 15.753 7.58711 15.7804 7.78877C16.151 8.28427 16.3546 8.68518 16.3911 8.9915C16.5059 9.31752 16.6782 9.52109 16.9092 9.60223C17.0287 9.62 17.2318 9.64449 17.5204 9.49805C17.5324 9.67377 17.5401 9.79045 17.5401 9.94073C17.5401 10.091 17.5367 10.1846 17.5309 10.3056C17.5045 10.3364 17.4762 10.3676 17.4455 10.3978C17.0878 10.6456 16.866 10.8554 16.7795 11.0268C16.7498 11.2861 16.756 11.6188 16.7983 12.026C16.8496 12.3299 16.7507 12.5642 16.502 12.7289C16.2274 12.9156 16.0488 13.1869 15.9657 13.5427C15.6791 14.1011 15.3953 14.4098 15.1144 14.4679C14.5652 14.6792 14.3371 14.6542 14.4302 14.3935C14.2415 13.1355 13.7955 12.8566 13.856 12.1738C13.8536 11.325 13.676 10.6532 13.2534 10.3484C13.0969 10.2355 12.7896 10.2173 12.2466 10.3052C11.946 10.3801 11.7429 10.3186 11.6359 10.1203C11.3891 9.73763 11.1855 9.31848 11.0251 8.86235C10.8288 8.38557 10.9152 8.04036 11.2844 7.82622C11.6618 7.65961 11.8716 7.48052 11.9134 7.28991C12.26 7.03496 12.3599 6.87315 12.2139 6.80401C12.0987 6.76128 12.0555 6.68398 12.0843 6.57259C12.3345 6.28115 11.9619 5.90424 12.6345 6.00363C12.8664 6.08573 12.9701 5.60128 12.6153 5.53118C12.4286 5.43851 12.3676 5.42651 12.431 5.3468C12.5347 5.12402 12.4329 5.07169 12.1256 5.18932C11.9979 5.1898 11.9763 5.13746 12.0608 5.03184C12.1943 4.77496 12.3359 4.56851 12.4862 4.41198C12.7526 4.23433 12.8727 4.24058 12.8468 4.43071C12.7791 4.56803 12.7728 4.66693 12.828 4.72647C12.9351 4.8249 12.9658 4.9022 12.9207 4.9579C12.8756 5.11442 12.9125 5.16963 13.0316 5.1245C13.132 5.07265 13.2736 4.9555 13.457 4.77304C13.6207 4.605 13.5775 4.49409 13.3274 4.43983C13.1675 4.33468 13.155 4.22329 13.2904 4.10662C13.5857 3.98418 13.771 3.82046 13.8454 3.6164C13.8594 3.56695 13.8886 3.52325 13.9319 3.48532H13.9328ZM9.96067 2.36181C10.6429 2.36181 11.3041 2.45255 11.9326 2.62156C11.8433 2.68974 11.7852 2.7632 11.7746 2.83906C11.6147 3.21693 11.6311 3.2755 11.3545 3.36721C10.6578 3.59863 10.4917 3.34993 9.76669 4.15319C9.48533 4.40958 9.37106 4.35485 9.34994 4.13494C9.11227 3.95153 9.08778 3.70426 9.34994 3.24622C9.40947 2.99559 9.24623 2.85971 8.85972 2.83906C8.71472 2.744 8.71184 2.66093 8.8506 2.58939C9.08346 2.55242 9.16076 2.50297 9.0825 2.44103C8.97927 2.43431 8.89765 2.43671 8.83235 2.44487C9.20062 2.39014 9.57704 2.36133 9.96067 2.36133V2.36181Z" fill="#FFCC00"/>
</svg>
